<svg id="Layer_1" data-name="Layer 1" xmlns="http://www.w3.org/2000/svg" viewBox="0 0 851.06 864.9"><defs><style>.cls-1{fill:#fff;}</style></defs><title>vault-logo2</title><path d="M876.09,855.54c-.19,1.13-.42,2.29-1.73,2.61s-2.74.54-4.57.88l-4.67,6.49c-3,1.2-6.81.46-8.19,4.55l1.05,1.39a1.93,1.93,0,0,1-2.72,1c-1.79-.64-3.51-1.47-5.58-2.36a9.43,9.43,0,0,0-.63,2c-.09.94.07,1.9.06,2.85,0,3.84-3.07,5.66-6.57,4a3.08,3.08,0,0,1-1.86-2.61c-.08-1.08,0-2.16,0-3.23-5-.77-9.72,2-14.86,8.73-7.91-2.08-12.76-7.3-15-15a26.23,26.23,0,0,0-2.76-6.58,6.78,6.78,0,0,0-3.09-2.84,39.33,39.33,0,0,0-4-1.68,14.41,14.41,0,0,1-5-2.63,31.9,31.9,0,0,0-5.27-3.2c-.36-.2-.92,0-1.48,0l-1.59,3.64c-3.21.14-6.37.34-9.52.37a7.76,7.76,0,0,1-2.43-1,8.18,8.18,0,0,0,1.11-2.65,7.76,7.76,0,0,0-.94-2.59c.94-1.87,2.76-2.57,4.51-3.3a4,4,0,0,0,2.44-2.14c.17-.41.26-1.12,0-1.35a2.22,2.22,0,0,0-1.6-.71A15.33,15.33,0,0,0,778,841c-8.25,3-16.47,6.14-24.75,9.08-9.66,3.42-19.54,6.06-29.48,8.51a341.89,341.89,0,0,1-42,7.38,351.21,351.21,0,0,1-41.66,2.26,364.07,364.07,0,0,1-38.79-2.15,334.25,334.25,0,0,1-49-8.92,354.75,354.75,0,0,1-108.94-48.79,366.89,366.89,0,0,1-46.1-36.72c-7.23-6.8-14.1-13.94-20.82-21.24a18.69,18.69,0,0,1-1.29-1.72c-3.68.26-4.74,3-6.27,4.94-2.93,1.07-6-.26-8.95,1.19a11.11,11.11,0,0,0,0,2.64,4,4,0,0,1-.62,3.18c-.7,1.13-1.71,1.2-2.93,1-.5-.07-1.12.37-1.64.68-1.09.64-2.08,1.46-3.22,2a5.47,5.47,0,0,1-2.73.57,33.83,33.83,0,0,1-5.65-1,80.29,80.29,0,0,0-8.34-2c-5.68-.93-9.85-5.57-10.71-11.44a10.4,10.4,0,0,0-2.89-5.44l-2.87.22a7.28,7.28,0,0,1-5.33-1.63,20.71,20.71,0,0,0-7.63-3.67,17.1,17.1,0,0,1-6.66-3.62,13.54,13.54,0,0,0-2.25-1.78c-3.3-1.73-4.64-4.73-5.06-8.13a24.69,24.69,0,0,1,1.14-11.78,38.45,38.45,0,0,0,1.51-8,4.58,4.58,0,0,0-.66-2.24c-.33-.73-1.17-1.37-1.17-2.06,0-4.43-2.32-8.64-1.26-13.16.14-.63.22-1.27.39-1.88.82-2.92,1.3-3.23,4.79-3.07.43-1.64-.73-2.72-1.51-3.82a7.69,7.69,0,0,1-1.22-3.5c-.48-2.95-1.34-5.84-2-8.76a10,10,0,0,1-.41-3.23,18.89,18.89,0,0,1,1.21-5.06,13.78,13.78,0,0,0,1.08-6.54,6.36,6.36,0,0,1,.94-3.58c.87-1.62,1.07-3.6,1.6-5.58,1.59-1.12,3.3-.45,5.08.16,1.62.56,3.31.89,5.24,1.38a4,4,0,0,0,2.52-2.85,5.64,5.64,0,0,0-.36-3.69c-2.75-7.67-5.73-15.28-8.05-23.08-2.59-8.73-4.73-17.6-6.77-26.47a351.54,351.54,0,0,1-8.31-93.39,337.56,337.56,0,0,1,3.91-39.13,348.38,348.38,0,0,1,11.72-50.41,336,336,0,0,1,16.08-42.08c5-10.57,10.17-21,16-31.1a360.77,360.77,0,0,1,27.7-40.87A352.06,352.06,0,0,1,400.3,249.7a320.55,320.55,0,0,1,37.85-30.19c8.1-5.43,16.43-10.49,24.66-15.72,1.19-.76,2.36-1.53,3.44-2.23-.15-1.42-.78-2.06-1.92-1.9-1.74.25-3.46.61-5.19.93-4.66.86-4.66.86-9.89-1.24a6.55,6.55,0,0,1-.21-2.6,9.54,9.54,0,0,0-.39-6.56,7.52,7.52,0,0,1-.06-4.69,6.92,6.92,0,0,1,3.8-4.66c3-1.42,5.93-2.92,9.07-4.47-.1-1.16-.12-2.25-.3-3.32-.59-3.62-1.49-7.21.64-10.72.43-.71.15-1.86.17-2.81a4.17,4.17,0,0,1,3.13-4.3,37.66,37.66,0,0,0,4.46-1.72c2.3-1.08,4.52-2.35,6.81-3.45A4.94,4.94,0,0,0,479,146.3c.23-1.1.43-2.2.65-3.29.77-3.75,3.22-6.56,5.38-9.51a4.7,4.7,0,0,1,1.94-1.37c4.25-1.84,8.43-4.09,13.06-4.62,5.72-.65,11.53-.91,16.51,3a4.5,4.5,0,0,0,2.09,1.09c3.77.34,5.52,3.51,7.91,5.69.82.74,1.09,2.28,1.26,3.51a6.65,6.65,0,0,0,2,4.18,18.69,18.69,0,0,1,5.24,9c1.47,5.21,3.3,10.31,4.95,15.39,2,.76,3.66,0,5.32-.35,7.47-1.76,14.87-3.85,22.38-5.36,8.62-1.74,17.3-3.19,26-4.43a348.66,348.66,0,0,1,101.38.87A368.28,368.28,0,0,1,740,170a339.45,339.45,0,0,1,39.32,13.86,352,352,0,0,1,43.22,21.82,356.88,356.88,0,0,1,86.95,72.51A381.36,381.36,0,0,1,944.79,326c1.7,2.7,3.23,5.52,4.87,8.26a349.07,349.07,0,0,1,21,42c2.45,5.71,4.28,11.68,6.39,17.54a334,334,0,0,1,12.53,44.74c1.74,8.28,3.1,16.66,4.31,25a343.16,343.16,0,0,1,3.07,62.69,347.74,347.74,0,0,1-6.12,53.33,324.31,324.31,0,0,1-11.58,44c-2.77,8-5.54,16-8.69,23.87a348.2,348.2,0,0,1-20.69,42.18c-1.25,2.21-2.81,4.26-3.27,6.88a5.4,5.4,0,0,1-1.26,2c-1.17,1.5-2.47,2.9-3.56,4.46-3.63,5.24-6.53,11-10.76,15.84-.76.88-.8,1.31-1.11,3.44.91.59,1.39-.35,2.07-.57.9-.28,2-.91,2.69-.59a3.76,3.76,0,0,0,4.72-.51c.56-.48,1.8-.16,2.93-.21.31,1.4.58,2.6,1,4.22l3.16-2.62c-.61-2.19-1.19-4.3-1.78-6.42,1.26.42,1.36.29,1.24-1.52a4,4,0,0,0,3.17.53,48.92,48.92,0,0,1,5.24,0l5.44-3.17c1.18.38,1.22,1.14.82,1.92-.93,1.81-2.41,3.38-2.39,5.89l2.7.26a3.6,3.6,0,0,1,.71,3.52c-.59,2.29-1,4.62-1.55,6.92l4.46,2.41c-.38,1.46-.73,2.77-1.09,4.12,2.67.75,2.19-1.86,3.29-2.66,2-.45,2.18,1.43,3.14,2.36,1.65,0,.79-1.93,1.8-2.61a21.34,21.34,0,0,0,3.21-.4c2-.54,3.48-1.44,3.12-4a1.48,1.48,0,0,1,2.24-1.45c1,.51,1.91,1.13,2.86,1.71l0-.11a6.41,6.41,0,0,0-4.23,4.21c-.52,1.86.6,3.2,2.53,2.91a6.12,6.12,0,0,0,1.35-.45c1.76-.68,3.09,0,4.18,1.36.88,1.07,1.7,2.19,2.61,3.38,0,.87-.76,1.23-1.55,1.37-2,.34-4,.59-6.21.9-.47-.73-1-1.5-1.46-2.23-1,.07-1.07.74-1,1.38.06.93.24,1.86.36,2.76l-3.31,2,.07-.11-4.65,1.81a9.46,9.46,0,0,1-1.72,7c3.61,2.54,7,1.6,10.46.29.74-.28,1.41-1,2.11-1,4.59,0,8.35-2.54,12.71-3.84-.19-1.3-.39-2.52-.54-3.76a2.24,2.24,0,0,1,1.18-2.4,2.06,2.06,0,0,1,1.73,0c3.57,2.49,4.2,2.53,7.74.2l-.11,0c-1.09,2.67-1.47,5.26,1,7.36a5.51,5.51,0,0,1-4.85,3.53c-4.9.66-9.76,1.37-14.68.1a7.52,7.52,0,0,0-5.52.82,15.19,15.19,0,0,1-8.71,1.79c-2-.21-4.14,0-6.19-.11-1.71-.12-3.4-.54-5.23-.85l5.74-5.15.44-.14c.12,0,.23-.1.35-.15l-.84.29c-.53-1-.83-2.24-1.64-2.78-2.2-1.46-2.53-3.55-2.55-5.84,0-1,.1-1.91.17-3.14l-2.83-2.33-2.84,1.8c.24.86.81,1.72.58,2.21C955.88,746.05,956,750,956,754a23.29,23.29,0,0,1-1,7.53c-.92,2.92-2.85,4.07-5.56,4.49-.62.09-1.28-.08-1.9,0a7.3,7.3,0,0,0-5.23,3.05,7.58,7.58,0,0,1-4.38,3.42,3,3,0,0,0-2.31,2.75,8.6,8.6,0,0,1-1.79,4.34,4.33,4.33,0,0,0,0,5.27,22.17,22.17,0,0,1,3.34,13.49,1.7,1.7,0,0,1-.76,1.13c-.71.41-1-.1-1.38-.72a3.61,3.61,0,0,0-4.41-1.18,32.29,32.29,0,0,1-3.23,1.92c-1.63.7-2.18,2.19-3,3.69a11.63,11.63,0,0,0-8,4.71c-1.67,2.29-3.14,4.73-4.76,7.2,1.12,3.55,1.12,3.55,5.45,3.94l-1.94,3.05,1.52,1.44c-1.33,3.84-1.61,2.93,1.74,5.39,0,1.4-.11,2.95,0,4.48a3.17,3.17,0,0,1-2,3.45,27.69,27.69,0,0,1-3.85,1.12,9.79,9.79,0,0,0-1.74-2.56,6.4,6.4,0,0,0-2.71-.64c-2-.31-3.64-1.12-4.23-3.29-.13-.47-.34-.92-.61-1.66a13.55,13.55,0,0,0-1.85,1.86c-1,1.72-.67,2.68,1.13,3.28.74.25,1.51.37,2.53.61-.09,1.33-.52,2.66-.16,3.71.81,2.4-.1,3.64-2.21,4.43-1.33.49-2.11,1.25-1.89,2.86.12.94-.74,1.4-1.57,1.45-1.42.08-2.84,0-4.31,0a19.7,19.7,0,0,0,0-3.88c-.54-2.37.12-4,2.33-5a8,8,0,0,0,1.51-1.33c-2.33-1.22-4.43-.68-6.4-.69s-3.43-.45-4.25-2.31c-2.78.52-3.83,2.36-4.34,4.67-1.35,6.12-1.52,6.47-5.43,10.76-.63.69-1.32.49-2.09-.53-.23-.31-.78-.77-.9-.7-.49.3-1.22.77-1.23,1.19a12.87,12.87,0,0,0,.59,2.87,35.15,35.15,0,0,0-3.33,2.49c-.27.24-.05,1.15.15,1.66a1.35,1.35,0,0,0,1.22,0,5.44,5.44,0,0,1,3.39-1.57ZM308.29,738a2.18,2.18,0,0,0-.44,0,.79.79,0,0,0-.26.19l.82-.32c.87,1.32,1.87,2.35,4.69,1.76C310.89,738.92,309.61,738.46,308.29,738Zm145-118-4.5-1.36c-.41,3.28.32,5.44,2.39,7.17.7-2,1.38-3.94,2-5.93.42-1.5.89-3,1.22-4.51.12-.53.12-1.27-1.14-1.33ZM762,413.91a6.84,6.84,0,0,0-.08.9c0,.7-.3,1.66.78,1.72.31,0,.75-.79,1-1.29a4.48,4.48,0,0,0,.21-1.34,29.61,29.61,0,0,1,12.9-3.08,12.85,12.85,0,0,1,5.18.62c4.91,1.85,9.44,4.63,14.56,6,.73.19,1.3.92,2,1.33a84.7,84.7,0,0,0,7.83,4.5c3.47,1.58,7.12,2.76,10.7,4.11a21.16,21.16,0,0,1,8.67,5.79,3.5,3.5,0,0,0,1.88,1.32c2.78.27,3.71,2.13,4.33,4.43.31,1.18.72,2.34,1.09,3.52l-2.35.89c.25.45.46.81.66,1.18a10.47,10.47,0,0,1,1.7,5.82,12.88,12.88,0,0,1-10.78,11.3c-2.51.37-5,.62-7.71.94-.66,2.54-2.41,3.64-4.74,4.21a49.19,49.19,0,0,0-5.89,2,20.74,20.74,0,0,1-8.89,1.32c-4.88-.28-5.13.09-4,4.93.28,1.19.69,2.53-.78,3.34-4.87-1.5-4.86-1.5-7.89-4.94-.85-1-1.72-1.9-2.63-2.78-.69-.67-1.51-1.39-2.5-.63s-.73,1.7-.47,2.64c.21.77.47,1.53.74,2.28,1.55,4.36,3.15,8.7,4.67,13.07,1.72,5,3.24,10,5.1,14.94C792.5,517,797.94,531,803.27,545q13.11,34.5,26.15,69,14.7,38.78,29.42,77.53c.79,2.09,1.58,4.19,2.5,6.23a3.66,3.66,0,0,0,3.78,2.39c1.27-.08,2.56.06,3.83-.06a5.36,5.36,0,0,1,4.28,1.73c-2.05.85-4-.05-6.05-.2-.89-.06-1.78-.15-2.68-.23-.22,2.92.54,5,3,8.62,1.69-1.88,3.46-3.68,5-5.65.51-.65.43-1.76.62-2.66,1.41.77,2.41.18,3.28-1,3.4-4.45,6.88-8.83,10.2-13.33a292.91,292.91,0,0,0,33.52-59.12,297.75,297.75,0,0,0,17.81-57.65,294.55,294.55,0,0,0,6-58.62,301,301,0,0,0-7.53-68,305,305,0,0,0-16.22-50.64,296,296,0,0,0-24-45.31,240.29,240.29,0,0,0-16.52-22.95c-.88-1.08-1.55-2.48-3.35-2.69-1.21.82-2.41,2.06-3.85,2.51-3.42,1.08-5.84,3.1-7,6.16a8.87,8.87,0,0,1-7.31-.19c-4.42-2-9.19-2.24-13.92-2.22a10.54,10.54,0,0,1-4.46-.75,52.09,52.09,0,0,0-8.63-2.25,2.8,2.8,0,0,0-1.86.3c-2.17,1.27-4.52,1.11-6.89,1.13-2.2,0-4.57.75-6.56.14a11.34,11.34,0,0,0-6.51.08,4.88,4.88,0,0,1-2.81,0c-5.44-2.17-10.16-5-12.77-10.81A94.73,94.73,0,0,1,787.42,297c-.49-2.33-1.11-5,.15-7s1.09-4.19.81-6.15c1.63-2.18,4-2.34,6-3.3,2.72-1.32,5.41-2.71,8.17-3.95a5.55,5.55,0,0,0,3.33-4.89,16.78,16.78,0,0,1,3.77-9.17,6,6,0,0,0,.54-1.59,25.79,25.79,0,0,0-2.42-2.07,297.91,297.91,0,0,0-59.27-30.23,289.76,289.76,0,0,0-34.83-10.66,302.52,302.52,0,0,0-111.46-5.79,296,296,0,0,0-120.79,43.78A305.37,305.37,0,0,0,436,291.09a300,300,0,0,0-51.5,63.53,295.45,295.45,0,0,0-35.14,85.23,308.57,308.57,0,0,0-7.26,44.93,322.91,322.91,0,0,0-.68,42.19,283.83,283.83,0,0,0,5.7,44.68,306.56,306.56,0,0,0,7.66,29.7,13.3,13.3,0,0,0,1.25,2.31c.55-.34.92-.44,1.07-.68,2.2-3.31,4.37-6.64,6.56-10a3.8,3.8,0,0,1,3.21-1.8v-.05a3.56,3.56,0,0,1,.41,3.18c-.51,1.47-1.14,3-.18,4.6l6.75,1.44c4.91-5.65,9.89-10.73,17.15-12.17,1.36-1.34,2.42-2.84,3.87-3.67,1.84-1.07,3,1.35,4.33,1.53l3.32-.77c6.43,6.86,9.12,8.81,13.17,9.51a16.13,16.13,0,0,0,.58-3.18c-.11-5.75,1.11-11.45.48-17.21a17.54,17.54,0,0,1,.17-2.38c0-.94.31-2-.05-2.8a10.31,10.31,0,0,0-2.18-2.37c.19-1.94.47-3.84.55-5.75a138.25,138.25,0,0,1,1.86-17.58c1.36-7.93,4.11-15.44,7.05-22.87a18,18,0,0,1,5.18-7.73A11.28,11.28,0,0,1,431,515.2a48.55,48.55,0,0,1,2.94,15c.17,3.64-.29,7.43-3.57,10a6.4,6.4,0,0,0-2.44,5.91c.11,1.9,0,3.83,0,5.74a48.54,48.54,0,0,0,1.95,15.62c1,3,1.94,6.06,2.91,9.1.3.91.57,1.83.93,2.71.89,2.22,1.93,4.38,2.73,6.63,1.28,3.6,2.32,7.28,3.62,10.88s2.79,7.09,4.15,10.65c.44,1.16.22,2.61,1.82,3.54.81-.06,2.17.23,3-.31,1.75-1.22,3.6-1,5.49-1,.94,0,1.87-.23,2.88-.36a27.56,27.56,0,0,0,1.62-3c2.14-5.51,4.28-11,6.27-16.59.51-1.43.44-3.07.7-5.08a12.39,12.39,0,0,0,2.81-4.33c6.44-17.89,13-35.73,19.51-53.6q14.5-39.88,29-79.77,18.62-51.14,37.3-102.24c8.27-22.68,16.46-45.37,24.74-68,4.78-13.09,13.58-22.56,26.06-28.72a75.37,75.37,0,0,1,33.83-7.67c15.36,0,29.76,3.49,42.73,12.09a47.7,47.7,0,0,1,17.47,19.93c2.21,4.78,4,9.75,5.9,14.67,5.4,14.19,10.74,28.4,16.12,42.6q11.29,29.81,22.63,59.61c2.9,7.62,5.88,15.21,8.82,22.81a12.79,12.79,0,0,0,3.73,5.37C758.43,416.09,760.19,415,762,413.91Zm-57.7-2.74c-.2-1.23-.24-1.87-.41-2.48q-6.54-24.56-13.09-49.11c-3.68-13.9-7.28-27.83-11-41.72a23.89,23.89,0,0,0-2.51-6.17,50,50,0,0,0-10.94-12.62c-8.4-6.95-18-10.25-28.92-9.07-10.38,1.11-18.74,6.11-25.45,13.9-3.34,3.87-6.46,8-7.77,13.08-1.07,4.18-2.24,8.34-3.32,12.51q-8.15,31.33-16.27,62.65-6.41,24.6-12.82,49.19c-.27,1.06-.39,2.15-.59,3.29a19.3,19.3,0,0,1,1.89,1.7c1,1.2,2.4.54,3.58.87,1.44.4.69,2.66,2.67,3s3,2.17,3.3,4.24l.55,4.09c3.87,2.6,6.7,5.63,6.57,10.5a2.32,2.32,0,0,0,.32,1.35c2.69,3.89,3.11,8.6,4.6,12.91.47,1.36.71,2.68,1.75,3.77a25.88,25.88,0,0,1,2.13,3l7.69-3.91,2.3,3.45,2.73.64c1.29,2.27.7,4.5.48,6.71-.11,1.08-.61,2.24.32,3.2,1.11,1.15.7,2.11.07,3.4s-.49,3-1.92,3.63c-2.15,1-3.49,2.69-5,4.32a11.79,11.79,0,0,1-4.62,3.33,8.47,8.47,0,0,0-5,4.22,3.44,3.44,0,0,1-3.12,1.91,10.38,10.38,0,0,1-3.74-.25,38.3,38.3,0,0,0-13.53-2.39c-2.34.06-5.16.65-7.27-1.47-.37-.36-1.24-.17-1.84-.34-3.88-1.09-7.71-1.66-11.54.22a7.14,7.14,0,0,1-2.41.2c-.52,1.71-1,3.21-1.43,4.74q-7.28,27.83-14.5,55.68c-3.31,12.84-7.23,25.53-9.62,38.59-.53,2.94-1.39,5.84-1.37,9.19,1.77.16,3.62.9,4.81.31,2.76-1.38,5.66-.85,8.44-1.39s5.84.1,8.14-2.25a2.65,2.65,0,0,1,1.83-.35,17.76,17.76,0,0,0,7.91-1.58c5.08-2,10-1.3,14.93.23a27.74,27.74,0,0,1,10.22,6.06c2.47,2.19,5,3.38,8.28,2.16.24-.1.6.1.91.16,1.11.91,2.26,1.77,3.31,2.74a2.59,2.59,0,0,1,.5,3.48,11.19,11.19,0,0,1-4.3,4.41,3.35,3.35,0,0,0-2.17,3.39c.23,4.36-2.3,7.09-5.61,9.31a5.1,5.1,0,0,1-2.54,1.19c-4.21,0-8.5,1.4-12.66-.51a5.45,5.45,0,0,0-2.36-.1,1.36,1.36,0,0,0-1.2,1.7c.27,1.08.45,2.23,1.74,2.66,1,.35,2.05.75,2.71,1a28.78,28.78,0,0,1,3.78-1.73c.35-.11,1.39.63,1.36.92-.2,2.18-.58,4.35-.9,6.53-2.43,1.08-1.53,3.59-2,5-2,1.57-3.6,2.8-5.16,4.1-2.64,2.2-5.82,1.35-8.75,1.44-2.34.08-2.54-2.53-3.6-4-.09-.12-.27-.17-.7-.43L549.94,672c-.86-.5-1.53-.87-2.27-1.29l-2.85,3.12c.4,1.79.77,3.49,1.21,5.51,3.16-.57,4,1.32,4.22,4.09-1,.84-1.93,2.11-3.17,2.56-2.07.77-4.31,1.22-6.53.15-1-.48-2.18-1.29-3.08-1.08-2,.47-3.18-.42-4.49-2.29-.63,1.83-1.07,3.1-1.58,4.6-3.25-1.12-2.89,2.18-4.38,3.07.64,1.6,1.15,2.9,1.72,4.33a19.06,19.06,0,0,1,3.27,1.67,5.65,5.65,0,0,0,5.84.69c.69-.26,1.43-.41,2.33-.66.73,1.69,1.34,3.12,1.93,4.5-.51,1-.93,1.82-1.35,2.62,2,2.15,2,2.15,2.8,5.88-1.47,3.12-2.95,6.3-4.47,9.46a2.42,2.42,0,0,0,.46,3.07c2,1.84,3.73,3.89,6.22,5.16,2.67,1.37,5.18,3,8.47,5a21.26,21.26,0,0,0,2.45.19,3.68,3.68,0,0,1,3.36,2.25c.11.19.56.19.82.26l3.71-1.71,8.89,7.61c.15,1.44-.05,3,.5,4.25,1.59,3.48,1.4,7.12,1.48,10.75,0,.26-.28.53-.42.79-.92.55-2.31-.53-3.09,1,.43,1.61,2.19,3,1.39,5.2-.28.75.55,2.11,1.2,2.95,1.57,2,1.43,3.75-.35,5.51a5.76,5.76,0,0,0-.84,1.46l1.09,3.08-2.94,3.74a14.63,14.63,0,0,0-1.7-1.47,7.75,7.75,0,0,0-1.78-.66c-2-.58-3.18.15-3.25,2.17s0,4.13,0,6.35c-2.9.62-3.71,2.89-4.6,5.37a6.44,6.44,0,0,0-4.59,1.94c-1.25,1.16-3.26,1.52-5,2.24a3.16,3.16,0,0,1-1.89-3,4.61,4.61,0,0,0-.41-1.22h-3.54c-.47-.66-1-1.28-1.37-1.95a2.51,2.51,0,0,0-2.9-1.15c-2.1.44-4,1.26-4.63,3.54,1.09,2.25,3.33,2.52,5.22,3.17a303.12,303.12,0,0,0,62.84,15A269.24,269.24,0,0,0,635,812.19c10.08,0,20.12,0,30.19-.82a361.94,361.94,0,0,0,38-5.24c3.45-.65,6.85-1.58,10.27-2.42a18,18,0,0,0,2.21-.87,6.27,6.27,0,0,0-.66-1.5,25.21,25.21,0,0,1-4.73-7.72,35.39,35.39,0,0,0-3.36-6.85,8.78,8.78,0,0,1-1.28-3.9,15.89,15.89,0,0,1,1.68-10.19c2.8-1.41,5.58-3,8.53-4.18,1.7-.67,3.2-1.2,4-3,.48-1,1.55-1,2.54-.72a5.69,5.69,0,0,1,3.26,2.57c2.41,3.76,5.05,7.37,7.65,11,.2.29.8.3,1.53.54a69.17,69.17,0,0,0-.8-7.17c-.81-3.66.49-6.86,1.78-10.07a3.21,3.21,0,0,1,3.13-1.85c1.89,0,3.78,0,5.36,0,.72.94,1.14,2,1.65,2.07,2.37.22,4.59,1.39,7.07.92a10.94,10.94,0,0,1,3.31.18c2.17.27,4.33.69,6.5.81.57,0,1.19-.8,1.74-1.19l-1.51-3.26c1.36-1.65.23-3.58.29-5.27.45-.12.62-.23.75-.2a6.33,6.33,0,0,1,1.31.45c2.62,1.41,2.59,1.41,4.05-.79,1.31-2,2.58-4,4.83-5.1a3.1,3.1,0,0,0,1.6-4.06c-1-3.13-.61-6.24,0-9.37.25-1.24.39-2.5.6-3.75.19-1.09.43-2.17.6-3.27a14,14,0,0,1,3.68-7.12c1-1.07,2.69-1.44,4.36-2.27a27.28,27.28,0,0,0-.47-3.58c-1.67-6.5-3.4-13-5.13-19.46-3.58-13.44-7.21-26.87-10.75-40.32-4.72-17.92-9.32-35.88-14.06-53.8-5.19-19.63-10.52-39.22-15.71-58.85q-11.22-42.4-22.34-84.85a15.54,15.54,0,0,0-1.06-3.17c-.34-.65-1-1.47-1.68-1.55-2.84-.34-5.16-2.38-8.24-2.17a7.22,7.22,0,0,1-6.3-2.87,29.42,29.42,0,0,0-3.83-3.48c-1.71.24-3.3.4-4.86.69s-3.11.71-4.84,1.11l-2.49-1c-3.43-1.39-3.35-1.38-3.09-4.81a26.73,26.73,0,0,0-.24-4.72c-.08-.79-.51-1.54-.57-2.32-.2-3,.37-5.93,3.19-7.5a82.26,82.26,0,0,1,10.73-5.1c2.65-1,4.43-2,4.37-5.32,0-2.66,1.49-3.9,4.19-4.31A18.23,18.23,0,0,1,704.26,411.17ZM303,734.54c.23.21.43.51.7.61,2.55.9,5.08,1.87,7.67,2.6a8.81,8.81,0,0,0,3.75.2,26.47,26.47,0,0,0,9.91-4.51,2.69,2.69,0,0,0,1.46-3.11,41.24,41.24,0,0,0-4.09-1.67c-2.39-.72-4.16-2.3-6-3.86-1.32-1.15-2.55-2.39-3.9-3.5a8.54,8.54,0,0,1-3.44-7.52c.11-1.6.32-3.18.37-4.78a2.35,2.35,0,0,0-.52-1.7c-.8-.69-.6-.93-.11-1.81,1-1.77.67-3.27-.28-3.91-1.16-.78-3.62.07-4.55,1.61a4.77,4.77,0,0,0-.54,1.32c-.55,2.33-1.12,4.65-1.57,7a12.26,12.26,0,0,0-.17,3.31c.18,1.9.59,3.78.81,5.68a9.47,9.47,0,0,1,.08,3.74c-.33,1.07-1.43,1.89-2.19,2.81C303.91,730.64,303.26,728.82,303,734.54Zm24-35.47a9.09,9.09,0,0,1-.46,2.65,23.25,23.25,0,0,1-1.85,2.16,1.67,1.67,0,0,0,.89,2.66c1.37.35,2.75.69,4.14,1a3.4,3.4,0,0,0,3.45-1.13c.5-.62,1-1.26,1.45-1.89,1.39-1.84,1.75-3.74.28-5.69a3.54,3.54,0,0,1-.73-2.13,19,19,0,0,0-3.12-8.93c-2.06-3.36-4.3-6.62-6.55-10a5.76,5.76,0,0,0-1.31,0c-3.76.83-5.86,3.69-7.72,6.67-1.1,1.77,0,3.81,2.43,5.27l2.66-2.59c2.09.61,3.36-1.27,4.84-1.91,1.68,1.15,1.5,2.69,1.71,4.06a3.56,3.56,0,0,1-1.83,4,24.53,24.53,0,0,0-3.88,2.75,8.56,8.56,0,0,0-1.32,2.16C322.12,699.71,324.21,699.22,326.93,699.07Zm23.88,52.63c-6.27.17-6.27.17-10.25-6.53-2.13,1-4.56-.66-7,.67v5.64c-2.07,1.67-2.07,1.68-4.49,1.14-.68-.15-1.24-.16-1.57.9,1.15,1.9,3,3.43,4.62,5.11a2.09,2.09,0,0,0,1.25.63c2.91.12,5.9,1.76,8.71-.49.45-.35,1.29-.17,1.82-.46C346.81,756.73,350.69,756.15,350.81,751.7Zm411.41,13.71c.55.75.71,1.18.93,1.22,3,.52,5.67,1.92,8.46,3,.21.08.57-.2.94-.34.22-1.29.78-2.68.58-3.94s-1.15-2.47-1.84-3.81c-1.76-.18-3.64-1.22-5.31.47l.36,2.36ZM425.43,559.59c-1.21,1.32-1.86,2.48-2.86,3-2.37,1.35-2.56,3.48-2.4,5.73a1.73,1.73,0,0,0,2,1.76c.53-1.2,1.09-2.5,1.71-3.77.08-.16.47-.18.72-.27.73.43.2,2.08,1.87,1.72C427.21,565.14,426.81,562.58,425.43,559.59Zm427,307.86a6.42,6.42,0,0,0-1.58-1.09c-2-.6-4-1.08-6-1.6a13.47,13.47,0,0,0-1.85-.45,1.91,1.91,0,0,0-1.94,2.18c.32,1.2.79,2.36,1.18,3.49C846.5,870.11,848.26,869.67,852.44,867.45ZM340.17,738.33a33.81,33.81,0,0,0-3.85-2.05,1.78,1.78,0,0,0-1.61.58,1.93,1.93,0,0,0,.1,1.73C336,740.37,336.9,740.35,340.17,738.33Zm226.72,1.46a3.05,3.05,0,0,0-2.38-2.78,1.13,1.13,0,0,0-.82.38,2.22,2.22,0,0,0,0,2.66,1.89,1.89,0,0,0,2.49.7C566.51,740.54,566.7,740.05,566.89,739.79Zm-208-7.32.64-.72a12.11,12.11,0,0,0-1.2-2.48,1.62,1.62,0,0,0-1.54-.28c-.34.34-.56,1.36-.32,1.62A14,14,0,0,0,358.87,732.47Zm409.31,26.84c.22-.26.77-.64.89-1.13a1.39,1.39,0,0,0-1.78-1.5,2,2,0,0,0-1.28,1.08C765.74,758.51,766.79,759.32,768.18,759.31Zm153-.74c-.56.45-1,.65-1.19,1-.32.71.22,1.76.93,1.72.47,0,1.35-.64,1.31-.8A8.8,8.8,0,0,0,921.17,758.57ZM420.86,555.47c-.89,1.19-.89,1.89-.59,2.61a4.69,4.69,0,0,0,.42.67c.13-.26.37-.52.37-.78C421.07,557.33,421,556.69,420.86,555.47ZM883.31,825.63l-.82.71a14.62,14.62,0,0,0,1.18,1s.54-.45.51-.52A12,12,0,0,0,883.31,825.63Zm-141.22-32a12.66,12.66,0,0,0-1.75-.48c-.12,0-.41.47-.4.72,0,.69.39,1.24,1.14,1C741.39,794.82,741.59,794.29,742.09,793.62ZM523.92,629.14l.57-.48a4,4,0,0,0-.54-.46s-.28.18-.27.26A3.68,3.68,0,0,0,523.92,629.14ZM993.24,753.71l.37,0-.15-.33ZM858.55,866.09c-.18-.43-.23-.82-.41-.9a.92.92,0,0,0-.81.18c-.13.14,0,.51,0,.78ZM738.84,789.87c.1-.24.32-.52.25-.71s-.41-.28-.63-.42c-.09.25-.27.53-.22.75S738.63,789.75,738.84,789.87ZM907.2,816.75c-.06-.09-.11-.24-.2-.27a.85.85,0,0,0-.38,0l.25.43Z" transform="translate(-216.32 -40.45)"/><path d="M996.29,717.55a19.19,19.19,0,0,0-2.12,1.11c-2.54,1.7-4.92,3.47-4.91,7a3.5,3.5,0,0,1-2.6,3.58c-1.25-.76-.11-1.7-.22-2.54a4.87,4.87,0,0,1,.18-2.8c1.37-2.49.45-4.21-1.65-5.94l-2.68,1.66a12.24,12.24,0,0,1-3.53-5.14c-.94-2.22-.08-4.35,1-6.35a16.62,16.62,0,0,1,1.21-1.73c-.93-2-2.07-.31-3-.59-.15-.25-.46-.55-.41-.74.54-1.94,1.13-3.86,1.81-6.13l5.86-1.8a6.85,6.85,0,0,1,3.91,4c1,2.65,2.52,4.66,5.41,5.53-.22,1.93-.8,3.69-.51,5.29.26,1.45,1.49,2.72,2.25,4.09C996.41,716.28,996.29,716.66,996.29,717.55Z" transform="translate(-216.32 -40.45)"/><path d="M288,688.67a2.38,2.38,0,0,1-.09.94,4.74,4.74,0,0,1-1.23,1.87c-.8.51-1.49-.18-1.95-.85-.81-1.17-1.51-2.43-2.35-3.58-2-2.72-1.35-5.39.12-8a1.69,1.69,0,0,1,1.59-.29C285.62,680,288.1,686.56,288,688.67Z" transform="translate(-216.32 -40.45)"/><path d="M443.32,175.57c-3.91,1.84-5.33,1.71-7-.45a3,3,0,0,1-.4-3.52c1-1.61,3-2.47,4.42-1.9s2.81,1.52,3,3.33C443.38,173.8,443.32,174.58,443.32,175.57Z" transform="translate(-216.32 -40.45)"/><path d="M278.71,710.62l-2.29-.63c-.52-2.21-.94-4.48.24-6.67,1.8-.56,3.22.13,4.92,1,.07.76.58,2.09.17,2.5-1.93,1.91-1.08,4.51-2.16,7.26C279.22,712.62,279,711.75,278.71,710.62Z" transform="translate(-216.32 -40.45)"/><path d="M1067.37,661.9a3.8,3.8,0,0,1-3.44,3.92c-1.24.09-2.67-1.35-2.78-2.8-.15-2,1.14-3.74,2.8-3.83A3.41,3.41,0,0,1,1067.37,661.9Z" transform="translate(-216.32 -40.45)"/><path d="M870.9,903.13c-.08-1.66.87-3.15,0-4.73-.26-.44.6-1.54,1.13-2.75,1.27,1.05,2.22,1.8,3.13,2.61.21.19.46.68.37.83-1.14,1.86.11,3.89-.28,6.26Z" transform="translate(-216.32 -40.45)"/><path d="M220.44,655.93c.08,1,.48,2.16.17,3a19.35,19.35,0,0,0-1.32,8.34,2.55,2.55,0,0,1-.45,1.31,1,1,0,0,1-.77.44,1.88,1.88,0,0,1-1.2-.52c-.86-1.31-.57-2.73-.09-4.09,1-2.8,2-5.58,3-8.37Z" transform="translate(-216.32 -40.45)"/><path d="M453.46,175.62a2.69,2.69,0,0,1-2.91,2.45,3.09,3.09,0,0,1-3.15-2.84c-.06-1.37,1.54-2.49,3.43-2.41A2.93,2.93,0,0,1,453.46,175.62Z" transform="translate(-216.32 -40.45)"/><path d="M232.8,682c.35,2.63.69,4.64.82,6.66,0,.41-.7,1.13-1.18,1.22a2,2,0,0,1-1.63-.65,4.66,4.66,0,0,1-.58-4.53C230.54,683.82,231.62,683.21,232.8,682Z" transform="translate(-216.32 -40.45)"/><path d="M264.23,681.72c.15-.51.08,0-.13.35a1.05,1.05,0,0,1-.74.46c-.27,0-.74-.12-.81-.3a46.28,46.28,0,0,1-1.68-4.8,1.81,1.81,0,0,1,.53-1.62c.89-.49,1.4.32,1.77,1C263.82,678.06,264.72,679.22,264.23,681.72Z" transform="translate(-216.32 -40.45)"/><path d="M234.11,676.5c-2-1.5-2-3.67-2.59-5.49a8.31,8.31,0,0,1,.07-2.7c2.31.76,2.59,2.6,3.06,4.15A4.39,4.39,0,0,1,234.11,676.5Z" transform="translate(-216.32 -40.45)"/><path d="M283.5,715.08c-1.15-3.42-.92-5.91.37-8.33a.85.85,0,0,1,.78-.33,1.91,1.91,0,0,1,1,.86,2.27,2.27,0,0,1,0,1.39C285.05,710.56,284.39,712.43,283.5,715.08Z" transform="translate(-216.32 -40.45)"/><path d="M940.65,780.69c1.24-1.1,2.69-1.55,3.59-2.94a3.26,3.26,0,0,1,2-1.06c1-.18,1.89.19,2,1.7-1.81.19-3.66.33-5,2C942.88,780.88,941.55,780.61,940.65,780.69Z" transform="translate(-216.32 -40.45)"/><path d="M749.39,867.08c.17.59.16,1.37.54,1.74,1.41,1.37.55,2.12-.62,2.85l.12.12c-.11-.44-.23-.88-.37-1.42l-2.46,1.18c.66-2,1.17-3.53,2.91-4.35Z" transform="translate(-216.32 -40.45)"/><path d="M948.14,704.8c-.24-.4-.86-1-.93-1.62a1.75,1.75,0,0,1,2.08-1.93,1.56,1.56,0,0,1,1.41,1.61A2.16,2.16,0,0,1,948.14,704.8Z" transform="translate(-216.32 -40.45)"/><path d="M291.89,617.76c2.44.85,1.77,2.56,1.51,4.4C291.59,621,291.72,619.46,291.89,617.76Z" transform="translate(-216.32 -40.45)"/><path d="M888.64,841c1.87-2.22,3.31-2.3,5.27-1.4C892.65,841.4,891.12,841.2,888.64,841Z" transform="translate(-216.32 -40.45)"/><path d="M944.58,773.74c1.64-2.08,2.18-2.08,3.71-.11A5.13,5.13,0,0,1,947,774C946.21,774,945.46,773.84,944.58,773.74Z" transform="translate(-216.32 -40.45)"/><path d="M271.5,734.89l-.27-4.49C272.42,731.78,272.26,733.28,271.5,734.89Z" transform="translate(-216.32 -40.45)"/><path d="M944.41,783.91c-1.55,1.83-2.76,1.7-4.5,1.1C941.25,783.64,942.52,784.08,944.41,783.91Z" transform="translate(-216.32 -40.45)"/><path d="M962,708.25c-1.43.42-2.43.62-3.15-.89C960,706.89,960.86,707.37,962,708.25Z" transform="translate(-216.32 -40.45)"/><path d="M749.31,871.67c.35,2-1.2,2.94-2.29,4.13a4,4,0,0,1,2.41-4Z" transform="translate(-216.32 -40.45)"/><path d="M271.07,662.55c-1.62-1-1.21-2-.85-3.07C271.27,660.1,271.27,660.1,271.07,662.55Z" transform="translate(-216.32 -40.45)"/><path d="M1005.33,744.9l3.37-2c-.57,1.89-2,2-3.46,2Z" transform="translate(-216.32 -40.45)"/><path d="M637.58,40.45a13.49,13.49,0,0,1,2.1,1.42A3,3,0,0,1,640,43a4,4,0,0,1-1.15-.42A12.73,12.73,0,0,1,637.58,40.45Z" transform="translate(-216.32 -40.45)"/><path d="M968.86,710.59c.19.34.37.66.56,1-.27.06-.57.23-.78.16s-.35-.4-.52-.61Z" transform="translate(-216.32 -40.45)"/><path d="M268.83,726.86v-2.92C270.13,725,270.22,725.75,268.83,726.86Z" transform="translate(-216.32 -40.45)"/><path d="M876.23,855.68a9.79,9.79,0,0,1,.84-1.4c.09-.11.52.07.79.12-.15.31-.22.76-.47.89a4.17,4.17,0,0,1-1.3.25Z" transform="translate(-216.32 -40.45)"/><path d="M283.57,700.06v2.55C281.82,701.58,282.53,700.86,283.57,700.06Z" transform="translate(-216.32 -40.45)"/><path d="M986.89,748.1l-.8.29c0-.23-.17-.58-.08-.66a2.18,2.18,0,0,1,.79-.28Z" transform="translate(-216.32 -40.45)"/><path d="M973.66,348.06c.14,0,.33-.12.4-.06.42.38.8.78,1.2,1.18-.11.08-.3.27-.33.24-.47-.31-.92-.65-1.35-1C973.54,348.38,973.63,348.18,973.66,348.06Z" transform="translate(-216.32 -40.45)"/><path d="M976.24,746.77c.32.64.64,1.28,1.1,2.22-1.56-.55-1-1.54-1-2.32Z" transform="translate(-216.32 -40.45)"/><path d="M246.14,647.41c.44.18.79.2.9.38a1.11,1.11,0,0,1,.09.84,5.48,5.48,0,0,1-.6,1,8.82,8.82,0,0,1-.38-1.13A7.1,7.1,0,0,1,246.14,647.41Z" transform="translate(-216.32 -40.45)"/><path d="M944.82,715.46c1.18-1.44,2.37-2.87,3.56-4.31h0c0,1.68-1.2,2.34-2.45,3C945.56,714.6,945.19,715,944.82,715.46Z" transform="translate(-216.32 -40.45)"/><path class="cls-1" d="M945.88,714c.12,1.81,0,1.94-1.24,1.52q.21,0,.18-.09c.37-.43.74-.86,1.1-1.32A.66.66,0,0,0,945.88,714Z" transform="translate(-216.32 -40.45)"/><path d="M890.68,844.54l-.58.66-.8-.87c.27-.13.55-.4.8-.37S890.49,844.33,890.68,844.54Z" transform="translate(-216.32 -40.45)"/><path d="M983.05,729.33l.27-2.14.58.18c-.31.61-.62,1.21-.92,1.83A.88.88,0,0,1,983.05,729.33Z" transform="translate(-216.32 -40.45)"/><path d="M749.51,867.2c.22-.67.43-1.34,1-3.07,0,2.08,0,2.08-1.11,3Z" transform="translate(-216.32 -40.45)"/><path d="M979.15,358.13l-.47.66a4.11,4.11,0,0,1-.49-.63c0-.07.17-.37.21-.36A5.51,5.51,0,0,1,979.15,358.13Z" transform="translate(-216.32 -40.45)"/><path d="M953.27,708.22,951.65,711l.05,0a2.61,2.61,0,0,1,1.59-2.75Z" transform="translate(-216.32 -40.45)"/><path d="M640.78,63.44l-.49.47c-.15-.23-.4-.47-.39-.7s.35-.33.55-.49Z" transform="translate(-216.32 -40.45)"/><path d="M641,45.88c.11,0,.27.07.33.16s-.06.21-.1.31c-.11-.05-.26-.07-.32-.16S641,46,641,45.88Z" transform="translate(-216.32 -40.45)"/><path d="M975.68,370.22l-.33.15a6.75,6.75,0,0,1-.25-.76,1.72,1.72,0,0,1,.34-.15Z" transform="translate(-216.32 -40.45)"/><path d="M978.35,364.84c-.1,0-.23.11-.3.07s-.13-.18-.19-.27c.11,0,.24-.11.33-.08S978.3,364.74,978.35,364.84Z" transform="translate(-216.32 -40.45)"/><path d="M277.47,672.41v-1.28c.11.31.24.61.32.92C277.8,672.11,277.64,672.22,277.47,672.41Z" transform="translate(-216.32 -40.45)"/><path d="M286.85,663c1.12.82,1.14,1.43.29,2.42Z" transform="translate(-216.32 -40.45)"/><path d="M953.29,708.21l1.64.14,0,.18-1.62-.31Z" transform="translate(-216.32 -40.45)"/><path d="M643.63,51.91l-.38-.16.45-.43.3.34Z" transform="translate(-216.32 -40.45)"/><polygon points="426.69 18.1 426.67 17.77 427.07 17.92 426.69 18.1"/><path d="M240.29,672.73l-.31.19-.24-.44c.12,0,.27-.09.37-.05S240.24,672.63,240.29,672.73Z" transform="translate(-216.32 -40.45)"/><polygon points="781.12 669.26 781.29 669 781.41 669.29 781.12 669.26"/><polygon points="733.1 728.64 733.42 728.64 733.26 728.99 733.1 728.64"/><polygon points="745.23 302.02 745.52 301.95 745.47 302.19 745.23 302.02"/><polygon points="726.79 678.03 726.47 678.03 726.63 677.71 726.79 678.03"/><path d="M240.3,674.74l-.36.12-.07-.52a.92.92,0,0,1,.38.07C240.31,674.46,240.28,674.62,240.3,674.74Z" transform="translate(-216.32 -40.45)"/><polygon points="400.33 32.71 400.16 33.05 400.05 32.68 400.33 32.71"/><path d="M951.65,711l-3.28.18h0l3.31-.19Z" transform="translate(-216.32 -40.45)"/><path class="cls-1" d="M566.89,739.79c-.19.26-.38.75-.74,1a1.89,1.89,0,0,1-2.49-.7,2.22,2.22,0,0,1,0-2.66,1.13,1.13,0,0,1,.82-.38A3.05,3.05,0,0,1,566.89,739.79Z" transform="translate(-216.32 -40.45)"/><path class="cls-1" d="M768.18,759.31c-1.39,0-2.44-.8-2.17-1.55a2,2,0,0,1,1.28-1.08,1.39,1.39,0,0,1,1.78,1.5C769,758.67,768.4,759.05,768.18,759.31Z" transform="translate(-216.32 -40.45)"/><path class="cls-1" d="M308.34,738l4.76,1.71c-2.82.59-3.82-.44-4.69-1.76Z" transform="translate(-216.32 -40.45)"/><path class="cls-1" d="M763.85,413.9a4.48,4.48,0,0,1-.21,1.34c-.23.5-.67,1.3-1,1.29-1.08-.06-.77-1-.78-1.72a6.84,6.84,0,0,1,.08-.9l-.14.14H764Z" transform="translate(-216.32 -40.45)"/><path class="cls-1" d="M742.09,793.62c-.5.67-.7,1.2-1,1.28-.75.2-1.12-.35-1.14-1,0-.25.28-.74.4-.72A12.66,12.66,0,0,1,742.09,793.62Z" transform="translate(-216.32 -40.45)"/><path class="cls-1" d="M523.91,629.14a4.54,4.54,0,0,1-.23-.68c0-.08.24-.27.27-.26a4,4,0,0,1,.54.46Z" transform="translate(-216.32 -40.45)"/><polygon class="cls-1" points="776.92 713.26 777.14 712.98 777.29 713.31 776.92 713.26"/><path class="cls-1" d="M858.55,866.09l-1.23.06c0-.27-.12-.64,0-.78a.92.92,0,0,1,.81-.18C858.32,865.27,858.37,865.66,858.55,866.09Z" transform="translate(-216.32 -40.45)"/><path class="cls-1" d="M966.75,752.36l.84-.29c-.12,0-.23.11-.35.15l-.44.14Z" transform="translate(-216.32 -40.45)"/><path class="cls-1" d="M308.41,738l-.82.32a.79.79,0,0,1,.26-.19c.14,0,.3,0,.47-.06Z" transform="translate(-216.32 -40.45)"/><path class="cls-1" d="M907.2,816.75l-.33.2-.25-.43a.85.85,0,0,1,.38,0C907.09,816.51,907.14,816.66,907.2,816.75Z" transform="translate(-216.32 -40.45)"/><path d="M410.51,481.19a3.8,3.8,0,0,0,.43,3.64c1.2,1.86.69,3.65-.34,5.4a13.36,13.36,0,0,1-6.21,5.77c-3.52,1.52-7,3.1-10.57,4.52-3.11,1.24-6.28,2.33-9.45,3.41-1.44.49-2.81,1.51-4.51.28-.48-.34-1.73.45-2.64.63-2.57.53-4.14-.85-3.61-3.46a30.65,30.65,0,0,1,2.15-6.83,61.2,61.2,0,0,1,3.92-6.52c.92-1.49,1.9-2.95,2.82-4.44,1.67-2.71,3.24-5.47,5-8.12a7.89,7.89,0,0,1,2.42-2.21c4-2.53,8.1-5.08,12.25-7.43,6.67-3.78,13.25-7.67,19.51-12.09a25.29,25.29,0,0,0,7.2-7.55c2.58-4.21,5.18-8.41,7.91-12.53,2.14-3.22,5.08-5.24,9.14-5.21,3,0,6.08-.22,9.07.1a10.6,10.6,0,0,1,6.15,3.42c1.92,1.92,3.75,3.93,5.57,5.95,1.69,1.87,1.85,3.75.48,6.13a24,24,0,0,1-5.83,6.93,170.76,170.76,0,0,1-22.85,15.75C430.85,471,423,475,415.24,479.08a25.67,25.67,0,0,1-2.65,1.06l0,.13h-2.14l.15-.1c-.59.38-1.16.77,0,1.12ZM397,488.54c-1.53-1.14-3.06-1.8-5-.61a33.77,33.77,0,0,1-3.82,1.73,2.62,2.62,0,0,0-1.2,3.59c.41,1,1.49,1.17,2.87.49,1.55-.77,3.11-1.53,4.63-2.35C395.56,490.8,396.71,490.21,397,488.54Zm31.39-33.19a5.33,5.33,0,0,0-.5-1,2,2,0,0,0-2.23,2.06c0,.07.58.45.71.37C427.11,456.32,427.77,455.8,428.41,455.35Zm-11.81,8.77a5.22,5.22,0,0,0-.54-.6c-.05,0-.37.13-.37.2a4,4,0,0,0,.14.75Z" transform="translate(-216.32 -40.45)"/><path d="M431.18,417.18c.83,5-.12,9.17-.59,13.4a4.11,4.11,0,0,1-1.25,2.5c-1.75,1.47-2.11,3.46-2.67,5.47A44,44,0,0,1,421,450.11a7.11,7.11,0,0,1-1.28,1.41c-1.43,1.3-2.92,1.08-4-.66-.56-.95-1-2-1.41-2.92-3.86-.08-4.89-3-5.58-5.68a51.52,51.52,0,0,1-1.28-9.93c-.17-3.05-.27-6-2.1-8.65-1.16-1.69-.91-3.71-.29-5.56,1.55-4.69,3.11-9.38,4.82-14a42.45,42.45,0,0,1,4.68-9.36c4.62,2.37,11,8.3,13.76,12.75-1,1.94-2,3.86-2.95,5.8a12.6,12.6,0,0,0-1.27,7.86,24.67,24.67,0,0,1-.17,5.21c-.12,2,.63,3.46,1.79,3.35s1.8-1.05,1.87-2.9C427.76,423.4,429,420.47,431.18,417.18Z" transform="translate(-216.32 -40.45)"/><path d="M764,414.05h-2.14A1.49,1.49,0,0,1,764,414.05Z" transform="translate(-216.32 -40.45)"/><polygon points="226.58 537.95 226.31 537.94 226.45 537.64 226.58 537.95"/><path d="M366.87,591.22l-.08-.82q0,.36.09.75A.56.56,0,0,1,366.87,591.22Z" transform="translate(-216.32 -40.45)"/><path d="M412.59,480.14l-2.08,1.05.14.09c0-.37,0-.75,0-1.12l-.15.1h2.14Z" transform="translate(-216.32 -40.45)"/><path d="M745.22,741.06l4.55-2.91c.44,0,.76,0,1.07.09,2.36.42,5.1.52,6.51,2.59a14.82,14.82,0,0,1,2.54,8.1c0,1.43,0,2.86,0,4.58a26.66,26.66,0,0,0-2.64.7c-.74.28-1.39.79-2.13,1.08a3.55,3.55,0,0,1-3.64-.36c-2.73-2.06-4.18-5.13-6.07-7.85-.31-.45-.17-1.23-.18-1.86C745.21,744,745.22,742.69,745.22,741.06Z" transform="translate(-216.32 -40.45)"/><path d="M674.56,418.73c0,2.63-.89,4-2.73,4.39a3.86,3.86,0,0,1-4.39-2.1,9.28,9.28,0,0,1-.71-2.76,3.45,3.45,0,0,1,2.52-4.06,3.88,3.88,0,0,1,4.75,2.2A12,12,0,0,1,674.56,418.73Z" transform="translate(-216.32 -40.45)"/><path d="M684.46,420.54a18.74,18.74,0,0,1-.42,2.12,2.58,2.58,0,0,1-2.65,1.59,2.3,2.3,0,0,1-2.21-1.5,9.41,9.41,0,0,1-.45-1.83c-.35-2.29.79-3.72,3-3.82C683.31,417,684.46,418.41,684.46,420.54Z" transform="translate(-216.32 -40.45)"/><path d="M531,622.61a8.59,8.59,0,0,1-2.22,1.17,1.18,1.18,0,0,1-1-1.63c.22-.45.91-1.06,1.27-1C529.62,621.29,530.1,621.9,531,622.61Z" transform="translate(-216.32 -40.45)"/><path d="M608,710.36a17.84,17.84,0,0,1-2.65,0c-.32-.05-.56-.62-.84-1,.32-.26.63-.74.94-.74C606.48,708.63,607.69,708.5,608,710.36Z" transform="translate(-216.32 -40.45)"/><path d="M604.24,659.24c-.14.27-.2.66-.42.77a2.17,2.17,0,0,1-2.81-.89,1.2,1.2,0,0,1,.27-1.15A2,2,0,0,1,604.24,659.24Z" transform="translate(-216.32 -40.45)"/><path d="M702.27,610.42c.11-1.24,1-1.4,1.92-1.27.23,0,.56.34.57.54a1,1,0,0,1-.41.75A1.53,1.53,0,0,1,702.27,610.42Z" transform="translate(-216.32 -40.45)"/><path d="M553,608c-.56.52-1,1.16-1.34,1.16s-.79-.62-1.19-1a6,6,0,0,1,1.33-1C552,607.13,552.38,607.61,553,608Z" transform="translate(-216.32 -40.45)"/><path d="M580.87,669.8l1.16,1.37c-.32.24-.66.7-1,.67a1.39,1.39,0,0,1-.93-.78C580.06,670.85,580.48,670.44,580.87,669.8Z" transform="translate(-216.32 -40.45)"/><path d="M544.56,602.88a4.16,4.16,0,0,1-.19-1.21c0-.14.49-.22.76-.34a4.26,4.26,0,0,1,.35,1.1C545.49,602.54,545,602.68,544.56,602.88Z" transform="translate(-216.32 -40.45)"/><path d="M629.71,667.28c.2-.37.32-.76.42-.75a6.24,6.24,0,0,1,1.18.26c-.12.2-.21.55-.35.57A6.3,6.3,0,0,1,629.71,667.28Z" transform="translate(-216.32 -40.45)"/><path d="M736.82,742.24c.1-.23.15-.61.3-.65s.64.13.66.27-.16.5-.26.76Z" transform="translate(-216.32 -40.45)"/><path d="M737.72,737.89l-.7.1a3.75,3.75,0,0,1,.09-.75c0-.06.35-.12.36-.1A5.08,5.08,0,0,1,737.72,737.89Z" transform="translate(-216.32 -40.45)"/><path d="M637.34,622.87a7.21,7.21,0,0,1-.74.36s-.17-.22-.25-.34a4,4,0,0,1,.7-.33C637.11,622.54,637.24,622.76,637.34,622.87Z" transform="translate(-216.32 -40.45)"/><path d="M618.12,615.51l-.41-.14.46-.45.31.32Z" transform="translate(-216.32 -40.45)"/><path d="M311.08,730.74a2.8,2.8,0,0,1,2.35,2.52,2.56,2.56,0,0,1-2.46,2.36,2.6,2.6,0,0,1-2.61-2.23C308.17,732.19,309.61,730.79,311.08,730.74Z" transform="translate(-216.32 -40.45)"/><path class="cls-1" d="M412.63,480.27h0Z" transform="translate(-216.32 -40.45)"/><path class="cls-1" d="M410.64,480.16c0,.37,0,.75,0,1.12C409.48,480.93,410.05,480.54,410.64,480.16Z" transform="translate(-216.32 -40.45)"/></svg>